<svg preserveAspectRatio="xMidYMid meet" data-bbox="44.5 21 110.999 158" viewBox="44.5 21 110.999 158" height="200" width="200" xmlns="http://www.w3.org/2000/svg" data-type="color" role="img"><defs><style>#comp-kp33qp7s svg [data-color="1"] {fill: #0cad9e;}
#comp-kp33qp7s svg [data-color="2"] {fill: #0CAD9E;}</style></defs>
    <g>
        <path d="M54.494 176.113a.775.775 0 0 1-.773-.777v-3.662c0-.429.346-.777.773-.777s.773.348.773.777v3.662a.775.775 0 0 1-.773.777z" fill="#0cad9e" data-color="1"></path>
        <path d="M54.494 176.113a.767.767 0 0 1-.248-.041l-3.422-1.165a.779.779 0 0 1-.484-.986.772.772 0 0 1 .98-.487l3.422 1.165a.779.779 0 0 1-.248 1.514z" fill="#0cad9e" data-color="1"></path>
        <path d="M54.494 176.113a.779.779 0 0 1-.248-1.514l3.422-1.165a.772.772 0 0 1 .98.487.779.779 0 0 1-.484.986l-3.422 1.165a.763.763 0 0 1-.248.041z" fill="#0cad9e" data-color="1"></path>
        <path d="M56.61 179a.77.77 0 0 1-.623-.316l-2.115-2.887a.78.78 0 0 1 .164-1.087.77.77 0 0 1 1.08.165l2.115 2.887a.78.78 0 0 1-.164 1.087.761.761 0 0 1-.457.151z" fill="#0cad9e" data-color="1"></path>
        <path d="M52.378 179a.769.769 0 0 1-.458-.151.78.78 0 0 1-.164-1.087l2.115-2.887a.77.77 0 0 1 1.08-.165.78.78 0 0 1 .164 1.087L53 178.684a.766.766 0 0 1-.622.316z" fill="#0cad9e" data-color="1"></path>
        <path d="M142.106 41.512a.78.78 0 0 1-.65-1.197l1.963-3.084a.769.769 0 0 1 1.067-.236.78.78 0 0 1 .234 1.074l-1.963 3.084a.767.767 0 0 1-.651.359z" fill="#0cad9e" data-color="2"></path>
        <path d="M142.107 41.512a.771.771 0 0 1-.604-.292l-2.258-2.838a.779.779 0 0 1 .121-1.092.77.77 0 0 1 1.086.121l2.258 2.838a.779.779 0 0 1-.603 1.263z" fill="#0cad9e" data-color="2"></path>
        <path d="M145.615 42.388a.754.754 0 0 1-.187-.023l-3.507-.875a.778.778 0 0 1 .372-1.509l3.507.875a.778.778 0 0 1-.185 1.532z" fill="#0cad9e" data-color="2"></path>
        <path d="M142.34 45.091a.773.773 0 0 1-.77-.726l-.234-3.579a.773.773 0 1 1 1.543-.102l.234 3.579a.777.777 0 0 1-.721.827l-.052.001z" fill="#0cad9e" data-color="2"></path>
        <path d="M138.778 42.796a.778.778 0 0 1-.276-1.503l3.329-1.283a.772.772 0 0 1 .998.447.778.778 0 0 1-.445 1.004l-3.329 1.283a.755.755 0 0 1-.277.052z" fill="#0cad9e" data-color="2"></path>
        <path fill="#0cad9e" d="M136.263 22.375a1.37 1.37 0 0 1-1.367 1.375 1.371 1.371 0 0 1-1.367-1.375c0-.76.612-1.375 1.367-1.375s1.367.616 1.367 1.375z" data-color="1"></path>
        <path d="M125.278 60.057l-22.784-17.271a4.142 4.142 0 0 0-4.987 0l-22.783 17.27-1.395-1.862 22.783-17.27a6.46 6.46 0 0 1 7.778 0l22.784 17.271-1.396 1.862z" fill="#0cad9e" data-color="1"></path>
        <path d="M152.48 155.628H47.52c-1.665 0-3.02-1.363-3.02-3.037V80.047l10.891-8.256 1.395 1.862-9.969 7.557v71.381c0 .389.315.706.702.706H152.48a.704.704 0 0 0 .702-.706V81.209l-9.762-7.4 1.395-1.862 10.684 8.099v72.544a3.031 3.031 0 0 1-3.019 3.038z" fill="#0cad9e" data-color="1"></path>
        <path d="M57.151 88.009h-1.545V65.916l-7.243-.132v-.763c0-.272.049-6.673 4.298-6.673 4.491 0 4.491 5.07 4.491 6.736v22.925zm-7.196-23.75l5.637.102c-.151-3.909-1.556-4.459-2.932-4.459-2.036.001-2.568 2.93-2.705 4.357z" fill="#0cad9e" data-color="2"></path>
        <path d="M145.181 87.524l-1.545 1.516V65.084c0-4.566-1.489-5.181-2.946-5.181H52.66v-1.554h88.031c4.491 0 4.491 5.07 4.491 6.736v22.439z" fill="#0cad9e" data-color="2"></path>
        <path d="M155.017 81.575l-1.352-1.894-30.184 21.798H76.519L46.335 79.681l-1.352 1.894 52.945 38.236-52.889 33.667 1.24 1.97 53.68-34.17.041.03.038-.027 53.116 34.165 1.249-1.964-52.338-33.664 52.952-38.243zm-77.422 20.681h44.809l-7.904 5.708H85.499l-7.904-5.708zM100 118.436l-13.622-9.837h27.244L100 118.436z" fill="#0cad9e" data-color="1"></path>
        <path fill="#0cad9e" d="M88.732 79.138v.777H72.829v-.777h15.903z" data-color="1"></path>
        <path fill="#0cad9e" d="M88.732 85.356v.777H72.829v-.777h15.903z" data-color="1"></path>
        <path fill="#0cad9e" d="M127.787 95.265v.777H72.829v-.777h54.958z" data-color="1"></path>
        <path d="M54.494 142.305h-8.401c-.64 0-1.159-.522-1.159-1.166 0-.644.519-1.166 1.159-1.166h8.401c.64 0 1.159.522 1.159 1.166 0 .644-.518 1.166-1.159 1.166z" fill="#0cad9e" data-color="1"></path>
        <path d="M152.81 109.447h-8.401c-.64 0-1.159-.522-1.159-1.166s.519-1.166 1.159-1.166h8.401c.64 0 1.159.522 1.159 1.166s-.519 1.166-1.159 1.166z" fill="#0cad9e" data-color="1"></path>
        <path d="M49.135 137.771h-3.476c-.64 0-1.159-.522-1.159-1.166s.519-1.166 1.159-1.166h3.476c.64 0 1.159.522 1.159 1.166s-.519 1.166-1.159 1.166z" fill="#0cad9e" data-color="1"></path>
        <path d="M152.858 114.008h-3.476c-.64 0-1.159-.522-1.159-1.166 0-.644.519-1.166 1.159-1.166h3.476c.64 0 1.159.522 1.159 1.166 0 .645-.519 1.166-1.159 1.166z" fill="#0cad9e" data-color="1"></path>
        <path d="M103.455 113.592a3.7 3.7 0 0 0-3.454 2.389 3.704 3.704 0 0 0-3.454-2.389c-2.046 0-3.704 1.668-3.704 3.726 0 4.908 7.159 9.361 7.159 9.361s7.159-4.635 7.159-9.361c-.002-2.058-1.66-3.726-3.706-3.726z" fill="#0cad9e" data-color="2"></path>
    </g>
</svg>